<?xml version="1.0" encoding="UTF-8"?>
<svg version="1.1" xmlns="http://www.w3.org/2000/svg" width="512" height="512">
<path d="M0 0 C34.32 0 68.64 0 104 0 C104 48.84 104 97.68 104 148 C152.84 148 201.68 148 252 148 C252 182.32 252 216.64 252 252 C203.16 252 154.32 252 104 252 C104 300.84 104 349.68 104 400 C69.68 400 35.36 400 0 400 C0 351.16 0 302.32 0 252 C-48.84 252 -97.68 252 -148 252 C-148 217.68 -148 183.36 -148 148 C-99.16 148 -50.32 148 0 148 C0 99.16 0 50.32 0 0 Z " fill="#A3FCC4" transform="translate(204,56)"/>
<path d="M0 0 C1.20124008 -0.0071553 2.40248016 -0.01431061 3.64012146 -0.02168274 C4.95496521 -0.02437164 6.26980896 -0.02706055 7.62449646 -0.02983093 C9.02594164 -0.03609894 10.42738517 -0.04274604 11.8288269 -0.04974365 C16.42924347 -0.07075317 21.02966023 -0.08114579 25.63011169 -0.09111023 C27.21727452 -0.09515949 28.80443718 -0.09927646 30.39159966 -0.10346031 C37.85229279 -0.12250822 45.31297608 -0.13673791 52.77368885 -0.14507228 C61.36702224 -0.15483183 69.96009716 -0.18111933 78.55333954 -0.22157317 C85.20661776 -0.25181192 91.85982224 -0.26654864 98.5131678 -0.26985329 C102.48130298 -0.27219569 106.44916193 -0.28104923 110.41722298 -0.30631447 C114.15607777 -0.32973545 117.89447724 -0.33377282 121.63338661 -0.32355309 C123.64349415 -0.32282805 125.65357929 -0.34182189 127.66358948 -0.36161804 C139.52321586 -0.29417127 148.77477761 2.84025688 158.12620544 10.14717102 C158.74237732 10.62541321 159.35854919 11.1036554 159.99339294 11.59638977 C169.43702843 19.92777486 173.1337181 31.98452299 174.12620544 44.14717102 C174.47550228 52.22002449 174.35967889 60.30732585 174.32151794 68.38545227 C174.31778158 70.72099689 174.31493756 73.05654309 174.3129425 75.39208984 C174.3053551 81.49937876 174.28574928 87.60657052 174.26353455 93.71382141 C174.24297002 99.96177354 174.23391823 106.20974158 174.22386169 112.4577179 C174.20249825 124.68757797 174.16842224 136.91736638 174.12620544 149.14717102 C174.69843747 149.14348385 175.2706695 149.13979668 175.86024189 149.13599777 C189.82556499 149.04741113 203.79083843 148.98160328 217.75638294 148.93992233 C224.51021265 148.91935364 231.26385407 148.89134316 238.01756287 148.84541321 C244.54036431 148.80107498 251.06304396 148.77800479 257.585989 148.76766205 C260.06936908 148.76029522 262.55273898 148.74590971 265.03603554 148.72425079 C268.52571474 148.69503639 272.01459664 148.69122268 275.50437927 148.69306946 C277.0300074 148.6714978 277.0300074 148.6714978 278.5864563 148.64949036 C289.51767794 148.71171807 298.56131737 152.45483452 307.12620544 159.14717102 C307.74237732 159.62541321 308.35854919 160.1036554 308.99339294 160.59638977 C315.36238255 166.21525394 320.49054841 175.76456755 322.12620544 184.14717102 C322.22307664 186.10331989 322.26535895 188.06243599 322.27337646 190.02096558 C322.28053177 191.22220566 322.28768707 192.42344574 322.2950592 193.66108704 C322.29909256 195.63335266 322.29909256 195.63335266 322.3032074 197.64546204 C322.3094754 199.04690722 322.3161225 200.44835075 322.32312012 201.84979248 C322.34412963 206.45020905 322.35452226 211.05062581 322.36448669 215.65107727 C322.36853595 217.2382401 322.37265293 218.82540275 322.37683678 220.41256523 C322.39588469 227.87325837 322.41011437 235.33394166 322.41844875 242.79465443 C322.4282083 251.38798781 322.45449579 259.98106273 322.49494964 268.57430512 C322.52518838 275.22758334 322.5399251 281.88078781 322.54322976 288.53413337 C322.54557216 292.50226855 322.5544257 296.47012751 322.57969093 300.43818855 C322.60311191 304.17704335 322.60714929 307.91544282 322.59692955 311.65435219 C322.59620452 313.66445973 322.61519835 315.67454487 322.63499451 317.68455505 C322.56754774 329.54418143 319.43311959 338.79574319 312.12620544 348.14717102 C311.64796326 348.7633429 311.16972107 349.37951477 310.67698669 350.01435852 C305.03349409 356.41126449 295.52462961 361.4613154 287.12620544 363.14717102 C285.53774764 363.23377282 283.94608619 363.26919311 282.35527039 363.26742554 C281.39897232 363.2688002 280.44267426 363.27017487 279.45739746 363.27159119 C278.41514511 363.26799591 277.37289276 363.26440063 276.29905701 363.26069641 C275.19631943 363.26084244 274.09358185 363.26098846 272.95742798 363.26113892 C269.31054216 363.26044195 265.66370735 363.2526596 262.01683044 363.24482727 C259.48905973 363.24296232 256.96128866 363.24153878 254.43351746 363.24053955 C248.45896675 363.23711082 242.48443796 363.22922836 236.50989604 363.21919006 C229.70703321 363.20800841 222.9041695 363.2025133 216.10129976 363.19749463 C202.10959152 363.1870452 188.11789948 363.16945854 174.12620544 363.14717102 C174.13064667 364.43375107 174.13508789 365.72033112 174.1396637 367.04589844 C174.18033008 379.21209027 174.21024741 391.37826819 174.22982979 403.54451275 C174.24023593 409.79824357 174.25433692 416.05191921 174.27708435 422.30561829 C174.29892614 428.34863637 174.31079787 434.39160161 174.31595993 440.43465614 C174.31963542 442.73214868 174.32681234 445.02963855 174.33766556 447.32710838 C174.50984195 485.30897251 174.50984195 485.30897251 161.06370544 500.08467102 C153.24950621 507.29259617 142.91440442 512.25069565 132.25241089 512.29434204 C131.05117081 512.30149734 129.84993073 512.30865265 128.61228943 512.31602478 C126.6400238 512.32005814 126.6400238 512.32005814 124.62791443 512.32417297 C123.22646925 512.33044098 121.82502571 512.33708808 120.42358398 512.34408569 C115.82316742 512.36509521 111.22275066 512.37548783 106.62229919 512.38545227 C105.03513637 512.38950153 103.44797371 512.3936185 101.86081123 512.39780235 C94.4001181 512.41685026 86.93943481 512.43107995 79.47872204 512.43941432 C70.88538865 512.44917387 62.29231373 512.47546137 53.69907135 512.51591522 C47.04579313 512.54615396 40.39258865 512.56089068 33.73924309 512.56419533 C29.77110791 512.56653774 25.80324896 512.57539127 21.83518791 512.60065651 C18.09633312 512.62407749 14.35793365 512.62811486 10.61902428 512.61789513 C8.60891674 512.6171701 6.5988316 512.63616393 4.58882141 512.65596008 C-7.27080497 512.58851332 -16.52236673 509.45408516 -25.87379456 502.14717102 C-26.48996643 501.66892883 -27.10613831 501.19068665 -27.74098206 500.69795227 C-37.18461754 492.36656718 -40.88130722 480.30981905 -41.87379456 468.14717102 C-42.22309139 460.07431755 -42.107268 451.98701619 -42.06910706 443.90888977 C-42.0653707 441.57334515 -42.06252667 439.23779895 -42.06053162 436.9022522 C-42.05294421 430.79496328 -42.03333839 424.68777152 -42.01112366 418.58052063 C-41.99055913 412.3325685 -41.98150734 406.08460046 -41.97145081 399.83662415 C-41.95008736 387.60676407 -41.91601135 375.37697567 -41.87379456 363.14717102 C-42.44602658 363.15085819 -43.01825861 363.15454536 -43.607831 363.15834427 C-57.5731541 363.24693091 -71.53842754 363.31273876 -85.50397205 363.35441971 C-92.25780177 363.3749884 -99.01144318 363.40299888 -105.76515198 363.44892883 C-112.28795342 363.49326706 -118.81063307 363.51633725 -125.33357811 363.52667999 C-127.81695819 363.53404682 -130.30032809 363.54843233 -132.78362465 363.57009125 C-136.27330385 363.59930565 -139.76218576 363.60311937 -143.25196838 363.60127258 C-144.2690538 363.61565369 -145.28613922 363.63003479 -146.33404541 363.64485168 C-157.26526705 363.58262397 -166.30890648 359.83950752 -174.87379456 353.14717102 C-175.48996643 352.66892883 -176.10613831 352.19068665 -176.74098206 351.69795227 C-183.10997166 346.0790881 -188.23813752 336.52977449 -189.87379456 328.14717102 C-189.97066575 326.19102215 -190.01294806 324.23190605 -190.02096558 322.27337646 C-190.02812088 321.07213638 -190.03527618 319.8708963 -190.04264832 318.633255 C-190.04533722 317.31841125 -190.04802612 316.0035675 -190.05079651 314.64888 C-190.05706452 313.24743482 -190.06371162 311.84599129 -190.07070923 310.44454956 C-190.09171874 305.844133 -190.10211137 301.24371623 -190.11207581 296.64326477 C-190.11612507 295.05610194 -190.12024204 293.46893929 -190.12442589 291.88177681 C-190.1434738 284.42108367 -190.15770348 276.96040038 -190.16603786 269.49968761 C-190.17579741 260.90635423 -190.2020849 252.31327931 -190.24253875 243.72003692 C-190.2727775 237.0667587 -190.28751421 230.41355423 -190.29081887 223.76020867 C-190.29316127 219.79207349 -190.30201481 215.82421453 -190.32728004 211.85615349 C-190.35070103 208.1172987 -190.3547384 204.37889922 -190.34451866 200.63998985 C-190.34379363 198.62988232 -190.36278746 196.61979717 -190.38258362 194.60978699 C-190.31513685 182.75016061 -187.1807087 173.49859885 -179.87379456 164.14717102 C-179.39555237 163.53099915 -178.91731018 162.91482727 -178.42457581 162.27998352 C-172.78108321 155.88307755 -163.27221872 150.83302664 -154.87379456 149.14717102 C-153.28533676 149.06056923 -151.6936753 149.02514893 -150.1028595 149.0269165 C-149.14656143 149.02554184 -148.19026337 149.02416718 -147.20498657 149.02275085 C-145.64160805 149.02814377 -145.64160805 149.02814377 -144.04664612 149.03364563 C-142.94390854 149.0334996 -141.84117096 149.03335358 -140.70501709 149.03320312 C-137.05813127 149.03390009 -133.41129646 149.04168245 -129.76441956 149.04951477 C-127.23664884 149.05137972 -124.70887777 149.05280326 -122.18110657 149.05380249 C-116.20655587 149.05723122 -110.23202707 149.06511368 -104.25748515 149.07515198 C-97.45462232 149.08633363 -90.65175861 149.09182874 -83.84888887 149.09684741 C-69.85718063 149.10729684 -55.86548859 149.1248835 -41.87379456 149.14717102 C-41.87823578 147.86059097 -41.882677 146.57401093 -41.88725281 145.2484436 C-41.92791919 133.08225177 -41.95783652 120.91607385 -41.9774189 108.74982929 C-41.98782504 102.49609847 -42.00192603 96.24242283 -42.02467346 89.98872375 C-42.04651525 83.94570567 -42.05838699 77.90274043 -42.06354904 71.8596859 C-42.06722453 69.56219337 -42.07440146 67.2647035 -42.08525467 64.96723366 C-42.25743106 26.98536953 -42.25743106 26.98536953 -28.81129456 12.20967102 C-20.99709533 5.00174587 -10.66199353 0.04364639 0 0 Z M-15.41285706 29.74482727 C-21.62028601 37.42243677 -21.17160937 47.76217202 -21.17677307 57.15864563 C-21.18943207 58.89462006 -21.18943207 58.89462006 -21.2023468 60.66566467 C-21.22797094 64.4602859 -21.24022636 68.25482963 -21.25270081 72.04951477 C-21.26888647 74.69605672 -21.28592646 77.3425784 -21.30419922 79.98910522 C-21.34566413 86.22546521 -21.3781709 92.46183315 -21.40667337 98.69826466 C-21.46089969 110.54633685 -21.52880422 122.39431342 -21.60461235 134.2422657 C-21.62746851 138.13495224 -21.64371959 142.02762765 -21.65933228 145.92034912 C-21.67273395 148.2940534 -21.68634832 150.66775649 -21.70021057 153.04145813 C-21.70282394 154.12769974 -21.70543732 155.21394135 -21.70812988 156.33309937 C-21.71502838 157.32405609 -21.72192688 158.31501282 -21.72903442 159.33599854 C-21.73288934 160.19779189 -21.73674425 161.05958525 -21.74071598 161.94749355 C-21.87379456 164.14717102 -21.87379456 164.14717102 -22.87379456 167.14717102 C-25.79743476 168.12171776 -27.68496234 168.27844752 -30.72966003 168.29193115 C-32.23088409 168.3022789 -32.23088409 168.3022789 -33.76243591 168.31283569 C-34.8595993 168.31544907 -35.9567627 168.31806244 -37.08717346 168.320755 C-38.82178833 168.33078552 -38.82178833 168.33078552 -40.59144592 168.34101868 C-43.10742253 168.35508482 -45.62341202 168.36697387 -48.13940811 168.37696648 C-52.12434632 168.39336348 -56.10921341 168.41639338 -60.09410095 168.44186401 C-71.42605084 168.51299758 -82.75804661 168.57270809 -94.09010315 168.62397766 C-100.3484735 168.65236751 -106.60676597 168.68779897 -112.86505449 168.73063141 C-116.17351458 168.75292295 -119.48188871 168.7703189 -122.79040909 168.78108025 C-126.48839951 168.79327806 -130.18613862 168.81744878 -133.88404846 168.8441925 C-135.51157547 168.84507622 -135.51157547 168.84507622 -137.17198181 168.84597778 C-147.39421994 168.94358965 -155.26505069 169.9537516 -162.87379456 177.14717102 C-170.5916591 185.15886289 -170.17096191 196.00464231 -170.13258362 206.50654602 C-170.13608826 207.70138611 -170.1395929 208.8962262 -170.14320374 210.12727356 C-170.1504511 213.3752392 -170.14881831 216.62303933 -170.14244556 219.8710022 C-170.13734202 223.28825701 -170.14208902 226.70550166 -170.1452179 230.12275696 C-170.14884495 235.85877942 -170.14409169 241.59475018 -170.13453674 247.33076477 C-170.12365461 253.93936176 -170.12718108 260.54783529 -170.13818955 267.15642929 C-170.14729851 272.85526452 -170.14853014 278.55406282 -170.14331222 284.25290298 C-170.14021227 287.64569875 -170.13972828 291.03843671 -170.14638519 294.43122864 C-170.15148798 298.2168349 -170.1436873 302.0022071 -170.13258362 305.78779602 C-170.13663208 306.89562439 -170.14068054 308.00345276 -170.14485168 309.14485168 C-170.08810325 319.63642135 -169.4241299 328.33587939 -161.87379456 336.14717102 C-153.98069295 343.56819718 -144.19335969 343.4445518 -133.88404846 343.45014954 C-132.71712463 343.45858887 -131.55020081 343.4670282 -130.34791565 343.47572327 C-126.5153917 343.50138179 -122.68294455 343.51361134 -118.85035706 343.52607727 C-116.17996567 343.54226004 -113.50959449 343.55929933 -110.83921814 343.57757568 C-104.54261754 343.61906925 -98.24600906 343.65156183 -91.94933736 343.68004984 C-80.65749155 343.73121186 -69.36571249 343.79321567 -58.07398164 343.86539024 C-53.47558039 343.89429675 -48.87718646 343.91444538 -44.2787323 343.93270874 C-41.88154476 343.94611077 -39.48435839 343.95972517 -37.08717346 343.97358704 C-35.44142838 343.9775071 -35.44142838 343.9775071 -33.76243591 343.98150635 C-32.76161987 343.98840485 -31.76080383 343.99530334 -30.72966003 344.00241089 C-29.85919352 344.0062658 -28.988727 344.01012072 -28.09188271 344.01409245 C-25.87379456 344.14717102 -25.87379456 344.14717102 -22.87379456 345.14717102 C-21.89924782 348.07081123 -21.74251805 349.95833881 -21.72903442 353.0030365 C-21.71868668 354.50426056 -21.71868668 354.50426056 -21.70812988 356.03581238 C-21.70420982 357.68155746 -21.70420982 357.68155746 -21.70021057 359.36054993 C-21.69352356 360.51695984 -21.68683655 361.67336975 -21.6799469 362.86482239 C-21.66588075 365.380799 -21.65399171 367.89678849 -21.6439991 370.41278458 C-21.6276021 374.39772278 -21.6045722 378.38258987 -21.57910156 382.36747742 C-21.507968 393.69942731 -21.44825749 405.03142307 -21.39698792 416.36347961 C-21.36859806 422.62184996 -21.3331666 428.88014244 -21.29033417 435.13843095 C-21.26804263 438.44689105 -21.25064668 441.75526518 -21.23988533 445.06378555 C-21.22768752 448.76177598 -21.20351679 452.45951508 -21.17677307 456.15742493 C-21.17618393 457.24244293 -21.17559479 458.32746094 -21.17498779 459.44535828 C-21.07737593 469.6675964 -20.06721398 477.53842715 -12.87379456 485.14717102 C-4.86210268 492.86503556 5.98367674 492.44433837 16.48558044 492.40596008 C17.68042053 492.40946472 18.87526062 492.41296936 20.10630798 492.4165802 C23.35427362 492.42382756 26.60207375 492.42219478 29.85003662 492.41582203 C33.26729144 492.41071848 36.68453608 492.41546548 40.10179138 492.41859436 C45.83781384 492.42222142 51.5737846 492.41746815 57.30979919 492.40791321 C63.91839618 492.39703108 70.52686971 492.40055755 77.13546371 492.41156602 C82.83429894 492.42067498 88.53309725 492.42190661 94.23193741 492.41668868 C97.62473318 492.41358874 101.01747113 492.41310475 104.41026306 492.41976166 C108.19586932 492.42486444 111.98124152 492.41706376 115.76683044 492.40596008 C117.428573 492.41203278 117.428573 492.41203278 119.12388611 492.41822815 C129.62441885 492.36143123 138.30322426 491.69138227 146.12620544 484.14717102 C153.74542441 476.21775484 153.42346831 465.53656939 153.42918396 455.13569641 C153.43762329 453.97838013 153.44606262 452.82106384 153.45475769 451.62867737 C153.48038182 447.83405614 153.49263725 444.03951242 153.50511169 440.24482727 C153.52129736 437.59828532 153.53833735 434.95176364 153.55661011 432.30523682 C153.59807502 426.06887684 153.63058179 419.8325089 153.65908426 413.59607738 C153.71331058 401.74800519 153.78121511 389.90002862 153.85702324 378.05207634 C153.8798794 374.1593898 153.89613048 370.2667144 153.91174316 366.37399292 C153.92514484 364.00028864 153.93875921 361.62658555 153.95262146 359.25288391 C153.95523483 358.1666423 153.95784821 357.0804007 153.96054077 355.96124268 C153.96743927 354.97028595 153.97433777 353.97932922 153.98144531 352.95834351 C153.98530023 352.09655015 153.98915514 351.23475679 153.99312687 350.34684849 C154.12620544 348.14717102 154.12620544 348.14717102 155.12620544 345.14717102 C158.04984565 344.17262428 159.93737323 344.01589452 162.98207092 344.00241089 C163.98288696 343.99551239 164.983703 343.98861389 166.0148468 343.98150635 C167.11201019 343.97889297 168.20917358 343.9762796 169.33958435 343.97358704 C171.07419922 343.96355652 171.07419922 343.96355652 172.84385681 343.95332336 C175.35983342 343.93925722 177.87582291 343.92736817 180.391819 343.91737556 C184.3767572 343.90097856 188.3616243 343.87794866 192.34651184 343.85247803 C203.67846173 343.78134446 215.01045749 343.72163395 226.34251404 343.67036438 C232.60088438 343.64197453 238.85917686 343.60654307 245.11746538 343.56371063 C248.42592547 343.54141909 251.7342996 343.52402314 255.04281998 343.5132618 C258.7408104 343.50106398 262.4385495 343.47689326 266.13645935 343.45014954 C267.76398636 343.44926582 267.76398636 343.44926582 269.4243927 343.44836426 C279.64663083 343.35075239 287.51746158 342.34059044 295.12620544 335.14717102 C302.84406999 327.13547915 302.4233728 316.28969973 302.38499451 305.78779602 C302.38849915 304.59295593 302.39200378 303.39811584 302.39561462 302.16706848 C302.40286199 298.91910284 302.4012292 295.67130271 302.39485645 292.42333984 C302.38975291 289.00608503 302.3944999 285.58884038 302.39762878 282.17158508 C302.40125584 276.43556263 302.39650258 270.69959186 302.38694763 264.96357727 C302.3760655 258.35498028 302.37959197 251.74650675 302.39060044 245.13791275 C302.3997094 239.43907752 302.40094103 233.74027922 302.3957231 228.04143906 C302.39262316 224.64864329 302.39213917 221.25590534 302.39879608 217.8631134 C302.40389887 214.07750714 302.39609819 210.29213494 302.38499451 206.50654602 C302.3910672 204.84480347 302.3910672 204.84480347 302.39726257 203.14949036 C302.34051414 192.65792069 301.67654079 183.95846265 294.12620544 176.14717102 C286.23310383 168.72614487 276.44577058 168.84979024 266.13645935 168.8441925 C264.96953552 168.83575317 263.80261169 168.82731384 262.60032654 168.81861877 C258.76780259 168.79296025 254.93535544 168.78073071 251.10276794 168.76826477 C248.43237656 168.752082 245.76200538 168.73504272 243.09162903 168.71676636 C236.79502843 168.67527279 230.49841994 168.64278021 224.20174825 168.6142922 C212.90990244 168.56313019 201.61812338 168.50112637 190.32639253 168.4289518 C185.72799128 168.40004529 181.12959734 168.37989666 176.53114319 168.3616333 C174.13395565 168.34823127 171.73676928 168.33461687 169.33958435 168.320755 C167.69383926 168.31683495 167.69383926 168.31683495 166.0148468 168.31283569 C165.01403076 168.30593719 164.01321472 168.2990387 162.98207092 168.29193115 C162.1116044 168.28807624 161.24113789 168.28422132 160.34429359 168.2802496 C158.12620544 168.14717102 158.12620544 168.14717102 155.12620544 167.14717102 C154.1557377 164.23576777 153.99499948 162.36612963 153.98144531 159.33599854 C153.97454681 158.34504181 153.96764832 157.35408508 153.96054077 156.33309937 C153.95662071 154.70373695 153.95662071 154.70373695 153.95262146 153.04145813 C153.94593445 151.89640808 153.93924744 150.75135803 153.93235779 149.5716095 C153.9182915 147.08019011 153.9064025 144.58875771 153.89640999 142.09731865 C153.88000944 138.14990429 153.85676935 134.20258553 153.83151245 130.25521851 C153.76039201 119.02988223 153.70070264 107.80449948 153.6493988 96.57905579 C153.62099035 90.37963919 153.58554793 84.1803009 153.54274505 77.98096663 C153.52047247 74.70433281 153.50306785 71.42778512 153.49229622 68.15109062 C153.48008165 64.4868313 153.45590372 60.82282392 153.42918396 57.15864563 C153.42830025 55.55053764 153.42830025 55.55053764 153.42739868 53.90994263 C153.32741096 43.51132354 152.60560944 34.88507976 145.12620544 27.14717102 C137.10447703 19.60521105 127.14359828 19.8509533 116.68089294 19.88838196 C115.46508545 19.88487732 114.24927795 19.88137268 112.99662781 19.87776184 C109.68665567 19.87050553 106.37693604 19.872153 103.06697845 19.87852001 C99.58785689 19.88361634 96.10874544 19.87887853 92.62962341 19.87574768 C86.7892719 19.87211856 80.94897112 19.87687937 75.10862732 19.88642883 C68.37563193 19.89731137 61.6427577 19.89378504 54.90976524 19.88277602 C49.10820676 19.87367301 43.30668456 19.87243256 37.50512123 19.87765336 C34.04918561 19.88075654 30.59330676 19.88122819 27.13737488 19.87458038 C23.28204207 19.86768107 19.42684281 19.87726875 15.57151794 19.88838196 C14.43982178 19.8843335 13.30812561 19.88028503 12.14213562 19.87611389 C0.7286148 19.9368645 -7.31302046 21.33662126 -15.41285706 29.74482727 Z " fill="#010188" transform="translate(189.87379455566406,-0.1471710205078125)"/>
</svg>
